
<svg width="202px" height="202px" viewBox="0 0 202 202" version="1.1" xmlns="http://www.w3.org/2000/svg" xmlns:xlink="http://www.w3.org/1999/xlink">
    <!-- Generator: Sketch 43.2 (39069) - http://www.bohemiancoding.com/sketch -->
    <desc>Created with Sketch.</desc>
    <defs>
        <rect id="path-1" x="24" y="5" width="100" height="71"></rect>
        <rect id="path-2" x="19" y="0" width="110" height="85" rx="8"></rect>
        <polygon id="path-3" points="0 73 148 73 132.773437 91.9570312 15.2265625 91.9570312"></polygon>
        <polygon id="path-4" points="48 76 100 76 94.6501267 82 53.3498733 82"></polygon>
    </defs>
    <g id="Page-1" stroke="none" stroke-width="1" fill="none" fill-rule="evenodd">
        <g id="Group-2" transform="translate(1.000000, 1.000000)">
            <circle id="Oval" stroke="#000000" fill="#FFFFFF" cx="100" cy="100" r="100"></circle>
            <g id="Group" transform="translate(26.000000, 54.000000)">
                <g id="sceen">
                    <use fill="#312D32" fill-rule="evenodd" xlink:href="#path-1"></use>
                    <rect x="24" y="5" width="100" height="71"></rect>
                </g>
                <g id="screen-outline">
                    <use fill-opacity="0" fill="#D8D8D8" fill-rule="evenodd" xlink:href="#path-2"></use>
                    <rect stroke="#000000" stroke-width="6" x="22" y="3" width="104" height="79" rx="8"></rect>
                </g>
                <g id="keyboard">
                    <use fill="#E7E7E7" fill-rule="evenodd" xlink:href="#path-3"></use>
                    <path stroke="#000000" stroke-width="6" d="M6.25754969,76 L141.74245,76 L131.335175,88.9570312 L16.6648252,88.9570312 L6.25754969,76 Z"></path>
                </g>
                <g id="indent">
                    <use fill="#D8D8D8" fill-rule="evenodd" xlink:href="#path-4"></use>
                    <path stroke="#000000" stroke-width="2.09999996" d="M50.3430052,77.05 L97.6569948,77.05 L94.1795772,80.95 L53.8204228,80.95 L50.3430052,77.05 Z"></path>
                </g>
            </g>
        </g>
    </g>
</svg>